solid OpenSCAD_Model
  facet normal -1 0 0
    outer loop
      vertex 0 0 0
      vertex 0 210 1
      vertex 0 210 0
    endloop
  endfacet
  facet normal -1 -0 0
    outer loop
      vertex 0 210 1
      vertex 0 0 0
      vertex 0 0 1
    endloop
  endfacet
  facet normal 0 0 1
    outer loop
      vertex 5 210 1
      vertex 0 210 1
      vertex 5 5 1
    endloop
  endfacet
  facet normal -0 0 1
    outer loop
      vertex 5 5 1
      vertex 250 0 1
      vertex 250 5 1
    endloop
  endfacet
  facet normal 0 0 1
    outer loop
      vertex 5 5 1
      vertex 0 0 1
      vertex 250 0 1
    endloop
  endfacet
  facet normal 0 0 1
    outer loop
      vertex 0 0 1
      vertex 5 5 1
      vertex 0 210 1
    endloop
  endfacet
  facet normal 1 -0 0
    outer loop
      vertex 250 0 1
      vertex 250 5 0
      vertex 250 5 1
    endloop
  endfacet
  facet normal 1 0 0
    outer loop
      vertex 250 5 0
      vertex 250 0 1
      vertex 250 0 0
    endloop
  endfacet
  facet normal 0 1 -0
    outer loop
      vertex 250 5 0
      vertex 5 5 1
      vertex 250 5 1
    endloop
  endfacet
  facet normal 0 1 0
    outer loop
      vertex 5 5 1
      vertex 250 5 0
      vertex 5 5 0
    endloop
  endfacet
  facet normal 0 0 -1
    outer loop
      vertex 250 0 0
      vertex 5 5 0
      vertex 250 5 0
    endloop
  endfacet
  facet normal 0 0 -1
    outer loop
      vertex 0 0 0
      vertex 5 5 0
      vertex 250 0 0
    endloop
  endfacet
  facet normal 0 0 -1
    outer loop
      vertex 0 210 0
      vertex 5 5 0
      vertex 0 0 0
    endloop
  endfacet
  facet normal 0 0 -1
    outer loop
      vertex 5 5 0
      vertex 0 210 0
      vertex 5 210 0
    endloop
  endfacet
  facet normal 0 -1 0
    outer loop
      vertex 0 0 0
      vertex 250 0 1
      vertex 0 0 1
    endloop
  endfacet
  facet normal 0 -1 -0
    outer loop
      vertex 250 0 1
      vertex 0 0 0
      vertex 250 0 0
    endloop
  endfacet
  facet normal 1 -0 0
    outer loop
      vertex 5 5 1
      vertex 5 210 0
      vertex 5 210 1
    endloop
  endfacet
  facet normal 1 0 0
    outer loop
      vertex 5 210 0
      vertex 5 5 1
      vertex 5 5 0
    endloop
  endfacet
  facet normal 0 1 -0
    outer loop
      vertex 5 210 0
      vertex 0 210 1
      vertex 5 210 1
    endloop
  endfacet
  facet normal 0 1 0
    outer loop
      vertex 0 210 1
      vertex 5 210 0
      vertex 0 210 0
    endloop
  endfacet
endsolid OpenSCAD_Model
